<?xml version="1.0" standalone="no"?>
<!DOCTYPE svg PUBLIC "-//W3C//DTD SVG 1.1//EN" "http://www.w3.org/Graphics/SVG/1.1/DTD/svg11.dtd" >
<svg>
<font id="Hykom-Bold" horiz-adv-x="27" >
<font-face units-per-em="100" ascent="80" descent="-20" />
<glyph unicode="," horiz-adv-x="56" d="M47.06 -1 L0.15 -1 L0.15 15 L15.36 15 L15.36 30.81 L0.17 30.81 L0.17 46.67 L15.68 46.67 L15.68 62.36 L47.06 62.36 C47.06 41.24 47.06 20.12 47.06 -1 z" />
<glyph unicode="." horiz-adv-x="56" d="M47 -1 L0.11 -1 L0.11 15 L15.27 15 L15.27 30.87 L0 30.87 L0 62.11 L15.69 62.11 L15.69 46.72 L31.33 46.72 L31.33 62.36 L47 62.36 C47 41.24 47 20.12 47 -1 z" />
<glyph unicode="0" horiz-adv-x="56" d="M0 78 L47.21 78 L47.21 61.94 L16 61.94 L16 46.21 L31.66 46.21 L31.66 30.33 L47 30.33 L47 -1.21 L0 -1.21 L0 14.63 L15.47 14.63 L15.47 30.48 L0 30.48 C0 46.32 0 62.16 0 78 z" />
<glyph unicode="1" horiz-adv-x="56" d="M15.92 46.38 L15.92 62 L0 62 L0 78 L47.21 78 L47.21 62.16 L31.42 62.16 L31.42 46.26 L31.53 46.38 C26.32667 46.38 21.12333 46.38 15.92 46.38 zM31.53 -1.21 L31.53 46.38 L31.42 46.26 L47.21 46.32 L47.21 -1.21 C41.98333 -1.21 36.75667 -1.21 31.53 -1.21 zM15.44 14.44 L15.44 -1 L0.23 -1 L0.23 14.44 C5.3 14.44 10.37 14.44 15.44 14.44 z" />
<glyph unicode="2" horiz-adv-x="56" d="M0 30.68 L15.94 30.68 L15.94 62.15 L47 62.15 L47 -0.73 L31.3 -0.73 L31.3 14.64 L15.67 14.64 L15.67 -1 L0 -1 C0 9.56 0 20.12 0 30.68 z" />
<glyph unicode="3" horiz-adv-x="56" d="M0 78 L31.48 78 L31.48 62.07 L47 62.07 L47 30.34 L31.66 30.34 L31.66 14.59 L46.92 14.59 L46.92 -1 L15.69 -1 L15.69 14.63 L0 14.63 C0 35.75333 0 56.87667 0 78 z" />
<glyph unicode="4" horiz-adv-x="56" d="M47.21 78 L47.21 -1.21 L15.65 -1.21 L15.65 14.69 L0 14.69 L0 78 C15.73667 78 31.47333 78 47.21 78 zM31.15 46.06 L16 46.06 L16 30.56 L31.15 30.56 C31.15 35.72667 31.15 40.89333 31.15 46.06 z" />
<glyph unicode="5" horiz-adv-x="56" d="M47.21 -1.21 L0.3 -1.21 L0.3 14.74 L15.51 14.74 L15.51 30.6 L0 30.6 L0 78 L31.48 78 L31.48 62 L15.93 62 L15.93 46.26 L31.58 46.26 L31.58 14.63 L47.21 14.63 C47.21 9.35 47.21 4.07 47.21 -1.21 z" />
<glyph unicode="6" horiz-adv-x="56" d="M0 62.16 L15.74 62.16 L15.74 78 L47.21 78 L47.21 14.69 L31.42 14.69 L31.54 14.58 L31.54 30.48 L0 30.48 C0 41.04 0 51.6 0 62.16 zM31.54 14.58 L31.42 14.69 L31.42 -1.21 L0 -1.21 L0 14.63 C10.51333 14.61333 21.02667 14.59667 31.54 14.58 z" />
<glyph unicode="7" horiz-adv-x="56" d="M47 78 L47 46.32 L31.54 46.32 L31.54 14.63 L47 14.63 L47 -1.21 L0 -1.21 L0 46.36 L15.54 46.36 L15.54 78 C26.02667 78 36.51333 78 47 78 z" />
<glyph unicode="8" horiz-adv-x="56" d="M47.21 78 L47.21 -1.21 L16.06 -1.21 L16.06 14.79 L31.22 14.79 L31.22 30.66 L15.61 30.66 L15.61 46.4 L0 46.4 L0 78 C15.73667 78 31.47333 78 47.21 78 z" />
<glyph unicode="9" horiz-adv-x="56" d="M0 46.32 L15.8 46.37 L15.8 30.37 L46.92 30.37 L46.92 -1.21 L0 -1.21 C0 14.63333 0 30.47667 0 46.32 zM0 78 L15.74 78 L15.8 62.11 L0 62.16 C0 67.44 0 72.72 0 78 zM31.48 78 L47.21 78 L47.21 62.1 L31.42 62.1 C31.44 67.4 31.46 72.7 31.48 78 zM15.68 62.21 L31.53 62.21 L31.53 46.21 L15.68 46.26 C15.68 51.57667 15.68 56.89333 15.68 62.21 z" />
<glyph unicode="A" horiz-adv-x="56" d="M47.21 46.32 L31.38 46.32 L31.38 -1 L0 -1 L0 78 L31.48 78 L31.48 62.16 L47.21 62.16 C47.21 56.88 47.21 51.6 47.21 46.32 z" />
<glyph unicode="B" horiz-adv-x="56" d="M0.29 -1.21 L0.29 14.63 L47.21 14.63 L47.21 -1.21 C31.57 -1.21 15.93 -1.21 0.29 -1.21 zM0 62.22 L0 78 L31.48 78 L31.42 62.1 L31.53 62.22 C21.02 62.22 10.51 62.22 0 62.22 zM31.53 30.48 L31.53 62.22 L31.42 62.1 L47.21 62.16 L47.21 30.48 C41.98333 30.48 36.75667 30.48 31.53 30.48 z" />
<glyph unicode="C" horiz-adv-x="56" d="M47.21 78 L47.21 -0.92 L31.27 -0.92 L31.27 30.27 L15.66 30.27 L15.66 -1.21 L0 -1.21 L0 78 L15.74 78 L15.74 46.59 L31.48 46.59 L31.48 78 C36.72333 78 41.96667 78 47.21 78 z" />
<glyph unicode="D" horiz-adv-x="56" d="M47.21 78 L47.21 -1.21 L0.21 -1.21 L0.21 30.54 L15.67 30.54 L15.67 46.36 L31.22 46.36 L31.22 61.88 L15.78 61.88 L15.78 46.25 L0 46.25 L0 78 C15.73667 78 31.47333 78 47.21 78 z" />
<glyph unicode="E" horiz-adv-x="56" d="M47.21 -1.21 L0 -1.21 L0 78 L47.21 78 L47.21 46.32 L31.74 46.32 L31.74 30.48 L47.21 30.48 C47.21 19.91667 47.21 9.35333 47.21 -1.21 z" />
<glyph unicode="F" horiz-adv-x="56" d="M31.41 30.77 L47 30.77 L47 -0.68 L31.59 -0.68 L31.59 14.62 L16 14.62 L16 -1 L0 -1 L0 46.52 L31.52 46.45 L31.41 46.56 C31.41 41.29667 31.41 36.03333 31.41 30.77 zM31.52 62.07 L47 62.07 L47 46.56 L31.41 46.56 L31.52 46.45 C31.52 51.65667 31.52 56.86333 31.52 62.07 z" />
<glyph unicode="G" horiz-adv-x="56" d="M47.21 78 L47.21 62 L31.68 62 L31.68 46.25 L46.93 46.25 L46.93 30.48 L0 30.48 L0 62.16 L15.74 62.16 L15.74 78 C26.23 78 36.72 78 47.21 78 zM46.93 14.63 L46.93 -1.21 L0 -1.21 L0 14.63 C15.64333 14.63 31.28667 14.63 46.93 14.63 z" />
<glyph unicode="H" horiz-adv-x="56" d="M47 78 L47 -1.21 L31.14 -1.21 L31.14 14.4 L15.35 14.4 L15.35 -1 L0 -1 L0 46.45 L15.59 46.45 L15.59 62.21 L31.23 62.21 L31.23 78 C36.48667 78 41.74333 78 47 78 z" />
<glyph unicode="I" horiz-adv-x="56" d="M0 78 L47.21 78 L47.21 46.52 L31.43 46.52 L31.43 61.87 L15.92 61.87 L15.92 30.43 L46.92 30.43 L46.92 -1 L15.69 -1 L15.69 14.63 L0 14.63 C0 35.75333 0 56.87667 0 78 z" />
<glyph unicode="J" horiz-adv-x="56" d="M0 46.32 L15.79 46.32 L15.79 62.21 L15.68 62.1 L31.48 62.1 L31.48 78 L47.21 78 L47.21 46.12 L31.69 46.12 L31.69 30.38 L46.9 30.38 L46.9 14.51 L31.4 14.51 L31.4 -1.21 L0 -1.21 C0 14.63333 0 30.47667 0 46.32 zM0 78 L15.74 78 L15.68 62.1 L15.79 62.21 L0 62.16 C0 67.44 0 72.72 0 78 z" />
<glyph unicode="K" horiz-adv-x="56" d="M47.21 -1.21 L0.27 -1.21 L0.27 46.51 L15.53 46.51 L15.53 62.23 L0 62.23 L0 78 L47.21 78 L47.21 62.16 L31.73 62.16 L31.73 14.63 L47.21 14.63 C47.21 9.35 47.21 4.07 47.21 -1.21 z" />
<glyph unicode="L" horiz-adv-x="56" d="M15.83 30.68 L15.83 15.07 L0.32 15.07 L0.32 62.07 L15.65 62.07 L15.65 46.73 L31.27 46.73 L31.27 62.36 L47.21 62.36 L47.21 30.68 C36.75 30.68 26.29 30.68 15.83 30.68 zM31.75 -1 L31.75 14.84 L47.21 14.84 L47.21 -1 C42.05667 -1 36.90333 -1 31.75 -1 z" />
<glyph unicode="M" horiz-adv-x="56" d="M0 78 L47.21 78 L47.21 -1 L31.43 -1 L31.43 14.63 L0 14.63 C0 35.75333 0 56.87667 0 78 zM16.06 46.58 L31.18 46.58 L31.18 62.08 L16.06 62.08 C16.06 56.91333 16.06 51.74667 16.06 46.58 z" />
<glyph unicode="N" horiz-adv-x="56" d="M47 14.63 L31 14.63 L31 -1 L0 -1 L0 46.26 L15.53 46.26 L15.42 46.37 L15.42 30.48 L47 30.48 C47 25.19667 47 19.91333 47 14.63 zM47 78 L47 46.32 L15.47 46.37 L15.58 46.26 L15.47 78 C25.98 78 36.49 78 47 78 z" />
<glyph unicode="O" horiz-adv-x="56" d="M15.57 -1.21 L15.57 14.5 L0.06 14.5 L0.06 30.5 L47 30.5 L47 -1.21 C36.52333 -1.21 26.04667 -1.21 15.57 -1.21 zM0 46.32 L0 62.06 L31.23 62.06 L31.23 78 L47 78 L47 46.32 C31.33333 46.32 15.66667 46.32 0 46.32 z" />
<glyph unicode="P" horiz-adv-x="56" d="M0 78 L47.21 78 L47.21 -0.93 L31.28 -0.93 L31.28 14.43 L15.66 14.43 L15.66 -1.21 L0 -1.21 C0 25.19333 0 51.59667 0 78 z" />
<glyph unicode="Q" horiz-adv-x="56" d="M0 78 L47.21 78 L47.21 14.5 L31.26 14.5 L31.26 -1 L15.65 -1 L15.65 30.48 L0 30.48 C0 46.32 0 62.16 0 78 zM16 61.94 L16 46.6 L31.3 46.6 L31.3 61.94 C26.2 61.94 21.1 61.94 16 61.94 z" />
<glyph unicode="R" horiz-adv-x="56" d="M47 -1.21 L15.27 -1.21 L15.27 30.63 L0 30.63 L0 62.09 L15.53 62.09 L15.42 62.21 L15.42 46.21 L31.27 46.21 L31.15 46.32 L31.15 30.48 L47 30.48 C47 19.91667 47 9.35333 47 -1.21 zM15.47 78 L47 78 L47 46.32 L31.2 46.37 L31.32 46.26 L31.32 62.21 L15.42 62.21 L15.53 62.09 C15.51 67.39333 15.49 72.69667 15.47 78 z" />
<glyph unicode="S" horiz-adv-x="56" d="M0 78 L47.21 78 L47.21 -1.21 L0 -1.21 L0 14.63 L15.47 14.63 L15.47 30.48 L0 30.48 C0 46.32 0 62.16 0 78 z" />
<glyph unicode="T" horiz-adv-x="56" d="M0 78 L31.48 78 L31.48 62.07 L47 62.07 L47 46.18 L31.66 46.18 L31.66 30.43 L46.92 30.43 L46.92 14.54 L31.42 14.54 L31.42 -1.21 L0 -1.21 L0 46.32 L15.47 46.32 L15.47 62.16 L0 62.16 C0 67.44 0 72.72 0 78 z" />
<glyph unicode="U" horiz-adv-x="56" d="M47.21 -1.21 L31.32 -1.21 L31.32 14.71 L15.69 14.71 L15.8 14.59 L15.8 46.44 L0 46.44 L0 78 L47.21 78 L47.21 46.32 L31.74 46.32 L31.74 30.48 L47.21 30.48 C47.21 19.91667 47.21 9.35333 47.21 -1.21 zM15.69 -0.91 L0.27 -0.91 L0.27 14.59 L15.8 14.59 L15.69 14.71 C15.69 9.50333 15.69 4.29667 15.69 -0.91 z" />
<glyph unicode="V" horiz-adv-x="56" d="M47.21 -1.21 L0.3 -1.21 L0.3 14.74 L15.52 14.74 L15.52 46.42 L0 46.42 L0 78 L31.48 78 L31.48 62.16 L47.21 62.16 C47.21 41.03667 47.21 19.91333 47.21 -1.21 z" />
<glyph unicode="W" horiz-adv-x="56" d="M0 78 L47.21 78 L47.21 -1 L31.43 -1 L31.43 46.32 L0 46.32 C0 56.88 0 67.44 0 78 z" />
<glyph unicode="X" horiz-adv-x="56" d="M15.65 -1 L15.65 30.59 L0.14 30.59 L0.14 62.12 L31.24 62.12 L31.24 14.84 L47.07 14.84 L47.07 -1 C36.59667 -1 26.12333 -1 15.65 -1 z" />
<glyph unicode="Y" horiz-adv-x="56" d="M47.21 -1.21 L15.65 -1.21 L15.65 14.69 L0 14.69 L0 78 L15.74 78 L15.74 62.16 L47.21 62.16 L47.21 30.48 L31.74 30.48 L31.74 14.63 L47.21 14.63 C47.21 9.35 47.21 4.07 47.21 -1.21 z" />
<glyph unicode="Z" horiz-adv-x="56" d="M0 78 L15.74 78 L15.74 62.43 L31.48 62.43 L31.48 78 L47.21 78 L47.21 46.14 L31.67 46.14 L31.67 30.41 L46.94 30.41 L46.94 -1.21 L0 -1.21 L0 14.63 L15.47 14.63 L15.47 30.48 L0 30.48 C0 46.32 0 62.16 0 78 z" />
<glyph unicode="a" horiz-adv-x="56" d="M15.46 46.28 L15.46 30.39 L15.58 30.51 L0.07 30.51 L0.07 62.12 L47 62.12 L47 46.28 C36.48667 46.28 25.97333 46.28 15.46 46.28 zM31 30.39 L31 -1 L0 -1 L0 14.43 L15.58 14.43 L15.58 30.51 L15.46 30.39 C20.64 30.39 25.82 30.39 31 30.39 z" />
<glyph unicode="b" horiz-adv-x="56" d="M31.6 30.44 L31.6 46.28 L47.06 46.28 L47.06 30.44 C41.90667 30.44 36.75333 30.44 31.6 30.44 zM31.15 -1 L0.09 -1 L0.09 14.4 L31.15 14.4 C31.15 9.26667 31.15 4.13333 31.15 -1 z" />
<glyph unicode="c" horiz-adv-x="56" d="M31.41 30.39 L31.53 30.51 L15.89 30.51 L15.89 -1.24 L0 -1.24 L0 62.12 L15.62 62.12 L15.62 46.21 L31.52 46.21 L31.41 46.32 C31.41 41.01 31.41 35.7 31.41 30.39 zM46.93 30.39 L46.93 -1 L31.52 -1 L31.52 30.51 L31.4 30.39 C36.57667 30.39 41.75333 30.39 46.93 30.39 zM31.52 61.83 L47 61.83 L47 46.32 L31.41 46.32 L31.52 46.21 C31.52 51.41667 31.52 56.62333 31.52 61.83 z" />
<glyph unicode="d" horiz-adv-x="56" d="M47.16 46.28 L47.16 14.6 L31.5 14.6 L31.5 -1 L0.28 -1 L0.28 30.27 L15.76 30.27 L15.76 46.33 L15.65 46.21 C26.15333 46.23333 36.65667 46.25667 47.16 46.28 zM0.24 46.33 L0.24 61.85 L15.65 61.85 L15.65 46.21 L15.76 46.33 C10.58667 46.33 5.41333 46.33 0.24 46.33 z" />
<glyph unicode="e" horiz-adv-x="56" d="M47.21 46.28 L31.74 46.28 L31.74 30.44 L47.21 30.44 L47.21 -1.24 L15.66 -1.24 L15.66 30.48 L0.29 30.48 L0.29 46.37 L15.79 46.37 L15.79 62.12 L47.21 62.12 C47.21 56.84 47.21 51.56 47.21 46.28 z" />
<glyph unicode="f" horiz-adv-x="56" d="M31.41 30.54 L47 30.54 L47 -1 L31.64 -1 L31.64 14.54 L15.69 14.54 L15.69 30.44 L0 30.44 L0 46.28 L31.52 46.21 L31.41 46.32 C31.41 41.06 31.41 35.8 31.41 30.54 zM15.79 14.6 L15.79 -1.24 L0 -1.24 L0 14.6 C5.26333 14.6 10.52667 14.6 15.79 14.6 zM31.52 61.83 L47 61.83 L47 46.32 L31.41 46.32 L31.52 46.21 C31.52 51.41667 31.52 56.62333 31.52 61.83 z" />
<glyph unicode="g" horiz-adv-x="56" d="M31.39 62.12 L31.39 46.41 L46.9 46.41 L46.9 30.41 L0 30.41 L0 62.12 C10.46333 62.12 20.92667 62.12 31.39 62.12 zM46.9 14.51 L46.9 -1 L16.07 -1 L16.07 14.51 C26.34667 14.51 36.62333 14.51 46.9 14.51 z" />
<glyph unicode="h" horiz-adv-x="56" d="M47.37 -1.24 L31.43 -1.24 L31.43 14.39 L15.8 14.39 L15.8 -0.94 L0.48 -0.94 L0.48 46.42 L31.7 46.42 L31.7 62.12 L47.37 62.12 C47.37 41 47.37 19.88 47.37 -1.24 z" />
<glyph unicode="i" horiz-adv-x="56" d="M15.69 62.12 L15.69 30.53 L46.92 30.53 L46.92 -1 L15.83 -1 L15.83 14.6 L0 14.6 L0 62.12 C5.23 62.12 10.46 62.12 15.69 62.12 z" />
<glyph unicode="j" horiz-adv-x="56" d="M47 30.44 L47 14.75 L31.67 14.75 L31.67 -1.25 L0 -1.25 L0 30.44 C15.66667 30.44 31.33333 30.44 47 30.44 zM15.91 61.9 L47 61.9 L47 46.58 L15.91 46.58 C15.91 51.68667 15.91 56.79333 15.91 61.9 z" />
<glyph unicode="k" horiz-adv-x="56" d="M47.52 -1.24 L0.5 -1.24 L0.5 46.32 L16.19 46.32 L16.19 61.92 L31.83 61.92 L31.83 14.6 L47.52 14.6 C47.52 9.32 47.52 4.04 47.52 -1.24 z" />
<glyph unicode="l" horiz-adv-x="56" d="M16.19 30.44 L16.19 14.82 L0.68 14.82 L0.68 61.82 L16 61.82 L16 46.49 L31.63 46.49 L31.63 62.12 L47.57 62.12 L47.57 30.44 C37.11 30.44 26.65 30.44 16.19 30.44 zM32.11 -1.24 L32.11 14.6 L47.57 14.6 L47.57 -1.24 C42.41667 -1.24 37.26333 -1.24 32.11 -1.24 z" />
<glyph unicode="m" horiz-adv-x="56" d="M0 46.28 L31.56 46.28 L31.56 61.88 L46.93 61.88 L46.93 -1 L31.43 -1 L31.43 14.6 L0 14.6 C0 25.16 0 35.72 0 46.28 z" />
<glyph unicode="n" horiz-adv-x="56" d="M47.68 14.6 L31.68 14.6 L31.68 -1 L0.73 -1 L0.73 46.22 L16.26 46.22 L16.15 46.34 L16.15 30.44 L47.68 30.44 C47.68 25.16 47.68 19.88 47.68 14.6 zM16.26 62.12 L47.68 62.12 L47.68 46.28 L16.15 46.34 L16.26 46.22 C16.26 51.52 16.26 56.82 16.26 62.12 z" />
<glyph unicode="o" horiz-adv-x="56" d="M16.34 -1.24 L16.34 14.47 L0.83 14.47 L0.83 30.47 L47.73 30.47 L47.73 -1.24 C37.26667 -1.24 26.80333 -1.24 16.34 -1.24 zM0.8 46.28 L0.8 62.12 L47.73 62.12 L47.73 46.28 C32.08667 46.28 16.44333 46.28 0.8 46.28 z" />
<glyph unicode="p" horiz-adv-x="56" d="M0 62.12 L15.83 62.12 L15.83 46.52 L31.63 46.52 L31.63 61.91 L47 61.91 L47 14.54 L15.69 14.54 L15.69 30.44 L0 30.44 C0 41 0 51.56 0 62.12 zM15.79 14.6 L15.79 -1.24 L0 -1.24 L0 14.6 C5.26333 14.6 10.52667 14.6 15.79 14.6 z" />
<glyph unicode="q" horiz-adv-x="56" d="M31.24 -0.94 L15.83 -0.94 L15.83 46.21 L31.35 46.21 L31.24 46.32 C31.24 30.56667 31.24 14.81333 31.24 -0.94 zM31.35 61.83 L46.78 61.83 L46.78 46.32 L31.24 46.32 L31.35 46.21 C31.35 51.41667 31.35 56.62333 31.35 61.83 z" />
<glyph unicode="r" horiz-adv-x="56" d="M32.19 -1.24 L32.19 14.52 L16.53 14.52 L16.53 30.28 L1 30.28 L1 46.22 L32.2 46.22 L32.09 46.34 L32.09 30.44 L47.88 30.44 L47.88 -1.24 C42.65 -1.24 37.42 -1.24 32.19 -1.24 zM32.2 62.12 L47.88 62.12 L47.88 46.28 L32.09 46.34 L32.2 46.22 C32.2 51.52 32.2 56.82 32.2 62.12 z" />
<glyph unicode="s" horiz-adv-x="56" d="M0 62.12 L15.82 62.12 L15.82 46.25 L47 46.25 L47 -1.24 L0 -1.24 L0 14.6 L31.2 14.6 L31.2 30.44 L0 30.44 C0 41 0 51.56 0 62.12 z" />
<glyph unicode="t" horiz-adv-x="56" d="M15.69 46.28 L15.69 30.53 L46.92 30.53 L46.92 14.64 L31.56 14.64 L31.56 -1.24 L0 -1.24 L0 46.28 C5.23 46.28 10.46 46.28 15.69 46.28 zM31.78 46.37 L31.78 61.85 L46.88 61.85 L46.88 46.37 C41.84667 46.37 36.81333 46.37 31.78 46.37 z" />
<glyph unicode="u" horiz-adv-x="56" d="M48 46.28 L32.56 46.28 L32.56 30.44 L48 30.44 L48 -1.24 L32.14 -1.24 L32.14 14.67 L16.51 14.67 L16.63 14.56 L16.63 46.49 L1.06 46.49 L1.06 62.12 L48 62.12 C48 56.84 48 51.56 48 46.28 zM16.51 -1 L1.09 -1 L1.09 14.56 L16.63 14.56 L16.51 14.67 C16.51 9.44667 16.51 4.22333 16.51 -1 z" />
<glyph unicode="v" horiz-adv-x="56" d="M48.09 -1.24 L1.19 -1.24 L1.19 14.76 L32.1 14.76 L32.1 30.62 L16.49 30.62 L16.49 46.36 L1.18 46.36 L1.18 61.92 L32.41 61.92 L32.41 46.28 L48.09 46.28 C48.09 30.44 48.09 14.6 48.09 -1.24 z" />
<glyph unicode="w" horiz-adv-x="56" d="M47.15 46.09 L47.15 -0.91 L31.89 -0.91 L31.89 46.09 C36.97667 46.09 42.06333 46.09 47.15 46.09 z" />
<glyph unicode="x" horiz-adv-x="56" d="M16.77 -1.24 L16.77 30.35 L1.27 30.35 L1.27 61.88 L32.36 61.88 L32.36 14.6 L48.19 14.6 L48.19 -1.24 C37.71667 -1.24 27.24333 -1.24 16.77 -1.24 z" />
<glyph unicode="y" horiz-adv-x="56" d="M48.24 30.44 L32.77 30.44 L32.77 14.6 L48.24 14.6 L48.24 -1.24 L16.68 -1.24 L16.68 14.65 L1.32 14.65 L1.32 61.92 L16.82 61.92 L16.82 46.28 L48.24 46.28 C48.24 41 48.24 35.72 48.24 30.44 z" />
<glyph unicode="z" horiz-adv-x="56" d="M47.21 62.36 L47.21 46.63 L31.7 46.63 L31.7 14.79 L31.81 14.91 L16 14.78 L16 46.52 L0.29 46.52 L0.29 62.36 C15.93 62.36 31.57 62.36 47.21 62.36 zM16.08 14.84 L16.08 -1 L0.29 -1 L0.29 14.84 C5.55333 14.84 10.81667 14.84 16.08 14.84 zM47.21 14.79 L47.21 -0.73 L31.81 -0.73 L31.81 14.91 L31.7 14.79 C36.87 14.79 42.04 14.79 47.21 14.79 z" />
</font>
</svg>
